# xmcd CD database file
#
# Track frame offsets:
#	150
#	15829
#	29448
#	42624
#	60302
#	78329
#	99623
#	119437
#	136548
#	151538
#	167499
#	177881
#
# Disc length: 2585 seconds
#
# Revision: 0
# Processed by: cddbd v1.5.2PL0 Copyright (c) Steve Scherf et al.
# Submitted via: CDex 1.51
#
DISCID=810a170c
DTITLE=REC - REC
DYEAR=2003
DGENRE=Country
TTITLE0=What about now
TTITLE1=Se escapan mis razones
TTITLE2=One more day
TTITLE3=Unconditional
TTITLE4=Start the car
TTITLE5=Tougher than the rest
TTITLE6=Quiero beber hasta perder el control
TTITLE7=Was
TTITLE8=El mundo se acaba
TTITLE9=Te solte la rienda
TTITLE10=La rata
TTITLE11=Te solte la rienda (Instrumental)
EXTD=YEAR: 2003
EXTT0=
EXTT1=
EXTT2=
EXTT3=
EXTT4=
EXTT5=
EXTT6=
EXTT7=
EXTT8=
EXTT9=
EXTT10=
EXTT11=
PLAYORDER=
